<svg width="230" height="260" viewBox="0 0 230 260" fill="none" xmlns="http://www.w3.org/2000/svg">
<path d="M100 30C155.228 30 200 74.7715 200 130C200 185.228 155.228 230 100 230C44.7715 230 0 185.228 0 130C0 74.7715 44.7715 30 100 30ZM100 200C138.66 200 170 168.66 170 130C170 91.3401 138.66 60 100 60C61.3401 60 30 91.3401 30 130C30 168.66 61.3401 200 100 200Z" fill="#060C65"/>
<g filter="url(#filter0_ddd_1164_897)">
<path d="M100.205 44.3054C100.205 35.846 107.053 28.8688 115.355 30.1531C124.408 31.5535 133.252 34.2063 141.629 38.0557C154.633 44.031 166.21 52.7499 175.578 63.6223C184.946 74.4948 191.886 87.2673 195.927 101.075C199.969 114.883 201.018 129.404 199.004 143.656C196.99 157.907 191.96 171.556 184.254 183.68C176.548 195.804 166.346 206.12 154.338 213.928C142.33 221.737 128.797 226.857 114.654 228.941C105.543 230.284 96.3162 230.346 87.2342 229.147C78.9058 228.048 74.2627 219.424 76.6061 211.3L77.586 207.903C79.9294 199.779 88.4041 195.3 96.7924 195.739C101.106 195.964 105.443 195.762 109.741 195.129C119.076 193.753 128.008 190.374 135.933 185.221C143.858 180.067 150.591 173.259 155.677 165.257C160.763 157.255 164.083 148.246 165.413 138.84C166.742 129.434 166.049 119.851 163.382 110.737C160.714 101.624 156.134 93.1946 149.951 86.0188C143.769 78.843 136.127 73.0885 127.545 69.1448C123.593 67.3288 119.484 65.9164 115.279 64.9209C107.102 62.9848 100.205 56.3021 100.205 47.8427V44.3054Z" fill="#0C2BA7"/>
</g>
<path d="M68.8232 140.3C67.9632 140.3 67.0232 140.23 66.0032 140.09C64.9832 139.95 64.1332 139.73 63.4532 139.43V136.58C64.1532 136.88 64.9532 137.11 65.8532 137.27C66.7532 137.43 67.6032 137.51 68.4032 137.51C69.9432 137.51 71.0732 137.25 71.7932 136.73C72.5332 136.19 72.9032 135.31 72.9032 134.09C72.9032 132.97 72.6432 132.14 72.1232 131.6C71.6032 131.06 70.5832 130.79 69.0632 130.79H63.3632V128.81L63.8732 120.68H74.8532L74.5832 123.2H66.6332L66.3032 128.27H69.5732C71.8732 128.27 73.5532 128.76 74.6132 129.74C75.6732 130.72 76.2032 132.19 76.2032 134.15C76.2032 136.05 75.5832 137.55 74.3432 138.65C73.1032 139.75 71.2632 140.3 68.8232 140.3ZM87.8627 140V135.77H78.2027V133.46L88.2527 120.68H91.1027V133.13H93.0827V135.77H91.1027V140H87.8627ZM81.3827 133.22H88.3727V124.4L81.3827 133.22ZM94.6523 143.6L95.5523 137.93H98.4023L97.0223 143.6H94.6523ZM106.44 140.3C105.58 140.3 104.64 140.23 103.62 140.09C102.6 139.95 101.75 139.73 101.07 139.43V136.58C101.77 136.88 102.57 137.11 103.47 137.27C104.37 137.43 105.22 137.51 106.02 137.51C107.56 137.51 108.69 137.25 109.41 136.73C110.15 136.19 110.52 135.31 110.52 134.09C110.52 132.97 110.26 132.14 109.74 131.6C109.22 131.06 108.2 130.79 106.68 130.79H100.98V128.81L101.49 120.68H112.47L112.2 123.2H104.25L103.92 128.27H107.19C109.49 128.27 111.17 128.76 112.23 129.74C113.29 130.72 113.82 132.19 113.82 134.15C113.82 136.05 113.2 137.55 111.96 138.65C110.72 139.75 108.88 140.3 106.44 140.3ZM120.68 129.2C119.26 129.2 118.19 128.81 117.47 128.03C116.77 127.23 116.42 126.22 116.42 125C116.42 123.58 116.77 122.46 117.47 121.64C118.19 120.8 119.26 120.38 120.68 120.38C122.1 120.38 123.16 120.8 123.86 121.64C124.56 122.46 124.91 123.58 124.91 125C124.91 126.22 124.56 127.23 123.86 128.03C123.16 128.81 122.1 129.2 120.68 129.2ZM119.36 140L129.59 120.68H132.65L122.42 140H119.36ZM120.68 127.22C121.46 127.22 122.02 127.02 122.36 126.62C122.7 126.22 122.87 125.66 122.87 124.94C122.87 124.06 122.69 123.42 122.33 123.02C121.99 122.6 121.44 122.39 120.68 122.39C119.92 122.39 119.36 122.6 119 123.02C118.66 123.42 118.49 124.06 118.49 124.94C118.49 125.66 118.66 126.22 119 126.62C119.34 127.02 119.9 127.22 120.68 127.22ZM131.42 140.3C130 140.3 128.93 139.91 128.21 139.13C127.51 138.33 127.16 137.32 127.16 136.1C127.16 134.68 127.51 133.56 128.21 132.74C128.93 131.9 130 131.48 131.42 131.48C132.84 131.48 133.9 131.9 134.6 132.74C135.3 133.56 135.65 134.68 135.65 136.1C135.65 137.32 135.3 138.33 134.6 139.13C133.9 139.91 132.84 140.3 131.42 140.3ZM131.42 138.32C132.2 138.32 132.76 138.12 133.1 137.72C133.44 137.32 133.61 136.76 133.61 136.04C133.61 135.16 133.43 134.52 133.07 134.12C132.73 133.7 132.18 133.49 131.42 133.49C130.66 133.49 130.1 133.7 129.74 134.12C129.4 134.52 129.23 135.16 129.23 136.04C129.23 136.76 129.4 137.32 129.74 137.72C130.08 138.12 130.64 138.32 131.42 138.32Z" fill="#EAE9FC"/>
<defs>
<filter id="filter0_ddd_1164_897" x="46" y="0" width="184" height="260" filterUnits="userSpaceOnUse" color-interpolation-filters="sRGB">
<feFlood flood-opacity="0" result="BackgroundImageFix"/>
<feColorMatrix in="SourceAlpha" type="matrix" values="0 0 0 0 0 0 0 0 0 0 0 0 0 0 0 0 0 0 127 0" result="hardAlpha"/>
<feOffset/>
<feGaussianBlur stdDeviation="15"/>
<feComposite in2="hardAlpha" operator="out"/>
<feColorMatrix type="matrix" values="0 0 0 0 0.0470588 0 0 0 0 0.168627 0 0 0 0 0.654902 0 0 0 0.5 0"/>
<feBlend mode="normal" in2="BackgroundImageFix" result="effect1_dropShadow_1164_897"/>
<feColorMatrix in="SourceAlpha" type="matrix" values="0 0 0 0 0 0 0 0 0 0 0 0 0 0 0 0 0 0 127 0" result="hardAlpha"/>
<feOffset/>
<feGaussianBlur stdDeviation="10"/>
<feComposite in2="hardAlpha" operator="out"/>
<feColorMatrix type="matrix" values="0 0 0 0 0.0235294 0 0 0 0 0.0470588 0 0 0 0 0.396078 0 0 0 0.75 0"/>
<feBlend mode="normal" in2="effect1_dropShadow_1164_897" result="effect2_dropShadow_1164_897"/>
<feColorMatrix in="SourceAlpha" type="matrix" values="0 0 0 0 0 0 0 0 0 0 0 0 0 0 0 0 0 0 127 0" result="hardAlpha"/>
<feOffset/>
<feGaussianBlur stdDeviation="5"/>
<feComposite in2="hardAlpha" operator="out"/>
<feColorMatrix type="matrix" values="0 0 0 0 0.0470588 0 0 0 0 0.168627 0 0 0 0 0.654902 0 0 0 0.9 0"/>
<feBlend mode="normal" in2="effect2_dropShadow_1164_897" result="effect3_dropShadow_1164_897"/>
<feBlend mode="normal" in="SourceGraphic" in2="effect3_dropShadow_1164_897" result="shape"/>
</filter>
</defs>
</svg>
