<svg width="260" height="260" viewBox="0 0 260 260" fill="none" xmlns="http://www.w3.org/2000/svg">
<path d="M130 30C185.228 30 230 74.7715 230 130C230 185.228 185.228 230 130 230C74.7714 230 29.9999 185.228 29.9999 130C29.9999 74.7715 74.7714 30 130 30ZM130 200C168.66 200 200 168.66 200 130C200 91.3401 168.66 60 130 60C91.3399 60 59.9999 91.3401 59.9999 130C59.9999 168.66 91.3399 200 130 200Z" fill="#060C65"/>
<g filter="url(#filter0_ddd_1164_896)">
<path d="M130 44.9807C130 36.0951 137.209 28.7601 145.933 30.1758C162.199 32.8154 177.651 39.4718 190.856 49.655C208.317 63.1201 220.873 82.0003 226.579 103.37C232.286 124.739 230.823 147.404 222.418 167.853C214.014 188.302 199.136 205.392 180.091 216.476C161.046 227.559 138.897 232.016 117.077 229.157C95.2576 226.297 74.9848 216.281 59.4008 200.66C43.8169 185.039 33.7922 164.685 30.8801 142.753C28.6778 126.167 30.6365 109.379 36.4637 93.8819C39.5889 85.5707 49.5046 82.9397 57.1665 87.3664L58.9005 88.3684C66.5624 92.7951 68.9879 102.622 66.5538 111.164C64.0649 119.898 63.3702 129.11 64.581 138.229C66.503 152.704 73.1194 166.137 83.4048 176.447C93.6902 186.757 107.07 193.368 121.471 195.255C135.872 197.142 150.491 194.2 163.06 186.885C175.63 179.57 185.449 168.291 190.996 154.795C196.543 141.299 197.509 126.34 193.743 112.236C189.976 98.132 181.689 85.6707 170.165 76.7837C162.905 71.1851 154.616 67.2019 145.845 65.0207C137.266 62.8875 130 55.877 130 46.9915V44.9807Z" fill="#0C2BA7"/>
</g>
<path d="M99.8836 140.3C94.8436 140.3 92.3236 138.46 92.3236 134.78C92.3236 133.68 92.6136 132.7 93.1936 131.84C93.7936 130.98 94.6436 130.37 95.7436 130.01C94.7436 129.63 94.0136 129.07 93.5536 128.33C93.0936 127.57 92.8636 126.76 92.8636 125.9C92.8636 124.24 93.4336 122.91 94.5736 121.91C95.7336 120.89 97.5036 120.38 99.8836 120.38C102.324 120.38 104.104 120.89 105.224 121.91C106.344 122.91 106.904 124.24 106.904 125.9C106.904 126.82 106.674 127.68 106.214 128.48C105.774 129.26 104.994 129.86 103.874 130.28C105.114 130.64 106.014 131.2 106.574 131.96C107.134 132.7 107.414 133.64 107.414 134.78C107.414 138.46 104.904 140.3 99.8836 140.3ZM100.694 129.26C101.794 128.98 102.594 128.6 103.094 128.12C103.614 127.64 103.874 126.92 103.874 125.96C103.874 123.96 102.544 122.96 99.8836 122.96C98.5836 122.96 97.5936 123.2 96.9136 123.68C96.2336 124.16 95.8936 124.92 95.8936 125.96C95.8936 127.54 96.7836 128.5 98.5636 128.84L100.694 129.26ZM99.8836 137.75C101.384 137.75 102.504 137.51 103.244 137.03C104.004 136.53 104.384 135.76 104.384 134.72C104.384 133.78 104.114 133.1 103.574 132.68C103.054 132.24 102.244 131.91 101.144 131.69L98.6836 131.18C97.6636 131.4 96.8536 131.77 96.2536 132.29C95.6536 132.79 95.3536 133.58 95.3536 134.66C95.3536 135.74 95.7336 136.53 96.4936 137.03C97.2736 137.51 98.4036 137.75 99.8836 137.75ZM115.509 140.3C114.929 140.3 114.289 140.26 113.589 140.18C112.889 140.12 112.219 140.02 111.579 139.88C110.959 139.74 110.439 139.59 110.019 139.43V136.58C110.819 136.9 111.639 137.14 112.479 137.3C113.339 137.44 114.199 137.51 115.059 137.51C116.619 137.51 117.779 137.28 118.539 136.82C119.299 136.36 119.679 135.55 119.679 134.39C119.679 133.35 119.329 132.6 118.629 132.14C117.949 131.68 116.969 131.45 115.689 131.45H112.779L113.049 129.02H115.479C118.019 129.02 119.289 128.02 119.289 126.02C119.289 125.04 118.949 124.32 118.269 123.86C117.609 123.4 116.539 123.17 115.059 123.17C114.239 123.17 113.409 123.25 112.569 123.41C111.749 123.57 111.019 123.79 110.379 124.07V121.28C110.979 121.04 111.759 120.83 112.719 120.65C113.679 120.47 114.629 120.38 115.569 120.38C117.929 120.38 119.679 120.88 120.819 121.88C121.979 122.88 122.559 124.16 122.559 125.72C122.559 126.68 122.319 127.58 121.839 128.42C121.379 129.26 120.649 129.86 119.649 130.22C120.809 130.52 121.649 131.06 122.169 131.84C122.709 132.62 122.979 133.54 122.979 134.6C122.979 136.54 122.299 137.98 120.939 138.92C119.579 139.84 117.769 140.3 115.509 140.3ZM125.576 143.6L126.476 137.93H129.326L127.946 143.6H125.576ZM137.394 140.3C136.814 140.3 136.174 140.26 135.474 140.18C134.774 140.12 134.104 140.02 133.464 139.88C132.844 139.74 132.324 139.59 131.904 139.43V136.58C132.704 136.9 133.524 137.14 134.364 137.3C135.224 137.44 136.084 137.51 136.944 137.51C138.504 137.51 139.664 137.28 140.424 136.82C141.184 136.36 141.564 135.55 141.564 134.39C141.564 133.35 141.214 132.6 140.514 132.14C139.834 131.68 138.854 131.45 137.574 131.45H134.664L134.934 129.02H137.364C139.904 129.02 141.174 128.02 141.174 126.02C141.174 125.04 140.834 124.32 140.154 123.86C139.494 123.4 138.424 123.17 136.944 123.17C136.124 123.17 135.294 123.25 134.454 123.41C133.634 123.57 132.904 123.79 132.264 124.07V121.28C132.864 121.04 133.644 120.83 134.604 120.65C135.564 120.47 136.514 120.38 137.454 120.38C139.814 120.38 141.564 120.88 142.704 121.88C143.864 122.88 144.444 124.16 144.444 125.72C144.444 126.68 144.204 127.58 143.724 128.42C143.264 129.26 142.534 129.86 141.534 130.22C142.694 130.52 143.534 131.06 144.054 131.84C144.594 132.62 144.864 133.54 144.864 134.6C144.864 136.54 144.184 137.98 142.824 138.92C141.464 139.84 139.654 140.3 137.394 140.3ZM151.72 129.2C150.3 129.2 149.23 128.81 148.51 128.03C147.81 127.23 147.46 126.22 147.46 125C147.46 123.58 147.81 122.46 148.51 121.64C149.23 120.8 150.3 120.38 151.72 120.38C153.14 120.38 154.2 120.8 154.9 121.64C155.6 122.46 155.95 123.58 155.95 125C155.95 126.22 155.6 127.23 154.9 128.03C154.2 128.81 153.14 129.2 151.72 129.2ZM150.4 140L160.63 120.68H163.69L153.46 140H150.4ZM151.72 127.22C152.5 127.22 153.06 127.02 153.4 126.62C153.74 126.22 153.91 125.66 153.91 124.94C153.91 124.06 153.73 123.42 153.37 123.02C153.03 122.6 152.48 122.39 151.72 122.39C150.96 122.39 150.4 122.6 150.04 123.02C149.7 123.42 149.53 124.06 149.53 124.94C149.53 125.66 149.7 126.22 150.04 126.62C150.38 127.02 150.94 127.22 151.72 127.22ZM162.46 140.3C161.04 140.3 159.97 139.91 159.25 139.13C158.55 138.33 158.2 137.32 158.2 136.1C158.2 134.68 158.55 133.56 159.25 132.74C159.97 131.9 161.04 131.48 162.46 131.48C163.88 131.48 164.94 131.9 165.64 132.74C166.34 133.56 166.69 134.68 166.69 136.1C166.69 137.32 166.34 138.33 165.64 139.13C164.94 139.91 163.88 140.3 162.46 140.3ZM162.46 138.32C163.24 138.32 163.8 138.12 164.14 137.72C164.48 137.32 164.65 136.76 164.65 136.04C164.65 135.16 164.47 134.52 164.11 134.12C163.77 133.7 163.22 133.49 162.46 133.49C161.7 133.49 161.14 133.7 160.78 134.12C160.44 134.52 160.27 135.16 160.27 136.04C160.27 136.76 160.44 137.32 160.78 137.72C161.12 138.12 161.68 138.32 162.46 138.32Z" fill="#EAE9FC"/>
<defs>
<filter id="filter0_ddd_1164_896" x="0.000366211" y="0" width="260" height="260" filterUnits="userSpaceOnUse" color-interpolation-filters="sRGB">
<feFlood flood-opacity="0" result="BackgroundImageFix"/>
<feColorMatrix in="SourceAlpha" type="matrix" values="0 0 0 0 0 0 0 0 0 0 0 0 0 0 0 0 0 0 127 0" result="hardAlpha"/>
<feOffset/>
<feGaussianBlur stdDeviation="15"/>
<feComposite in2="hardAlpha" operator="out"/>
<feColorMatrix type="matrix" values="0 0 0 0 0.0470588 0 0 0 0 0.168627 0 0 0 0 0.654902 0 0 0 0.5 0"/>
<feBlend mode="normal" in2="BackgroundImageFix" result="effect1_dropShadow_1164_896"/>
<feColorMatrix in="SourceAlpha" type="matrix" values="0 0 0 0 0 0 0 0 0 0 0 0 0 0 0 0 0 0 127 0" result="hardAlpha"/>
<feOffset/>
<feGaussianBlur stdDeviation="10"/>
<feComposite in2="hardAlpha" operator="out"/>
<feColorMatrix type="matrix" values="0 0 0 0 0.0235294 0 0 0 0 0.0470588 0 0 0 0 0.396078 0 0 0 0.75 0"/>
<feBlend mode="normal" in2="effect1_dropShadow_1164_896" result="effect2_dropShadow_1164_896"/>
<feColorMatrix in="SourceAlpha" type="matrix" values="0 0 0 0 0 0 0 0 0 0 0 0 0 0 0 0 0 0 127 0" result="hardAlpha"/>
<feOffset/>
<feGaussianBlur stdDeviation="5"/>
<feComposite in2="hardAlpha" operator="out"/>
<feColorMatrix type="matrix" values="0 0 0 0 0.0470588 0 0 0 0 0.168627 0 0 0 0 0.654902 0 0 0 0.9 0"/>
<feBlend mode="normal" in2="effect2_dropShadow_1164_896" result="effect3_dropShadow_1164_896"/>
<feBlend mode="normal" in="SourceGraphic" in2="effect3_dropShadow_1164_896" result="shape"/>
</filter>
</defs>
</svg>
