<svg width="260" height="260" viewBox="0 0 260 260" fill="none" xmlns="http://www.w3.org/2000/svg">
<path d="M130 30C185.228 30 230 74.7715 230 130C230 185.228 185.228 230 130 230C74.7715 230 30 185.228 30 130C30 74.7715 74.7715 30 130 30ZM130 200C168.66 200 200 168.66 200 130C200 91.3401 168.66 60 130 60C91.3401 60 60 91.3401 60 130C60 168.66 91.3401 200 130 200Z" fill="#060C65"/>
<g filter="url(#filter0_ddd_1164_895)">
<path d="M130 44.3058C130 35.8464 136.862 28.8688 145.182 30.1531C162.816 32.8754 179.505 40.3084 193.439 51.802C211.323 66.5533 223.565 87.0811 228.079 109.887C232.592 132.693 229.098 156.365 218.192 176.872C207.286 197.379 189.643 213.451 168.268 222.35C146.894 231.248 123.111 232.422 100.972 225.672C78.8322 218.922 59.7066 204.666 46.8532 185.332C33.9998 165.999 28.214 142.783 30.4817 119.643C32.2486 101.613 38.8196 84.4967 49.3742 70.0388C54.3532 63.2184 64.1142 63.2749 70.0658 69.2566L72.5548 71.7584C78.5064 77.7401 78.3201 87.377 73.8887 94.569C68.6151 103.128 65.3128 112.841 64.318 122.992C62.8213 138.265 66.6398 153.587 75.1231 166.347C83.6063 179.107 96.2294 188.517 110.841 192.972C125.453 197.427 141.15 196.652 155.257 190.779C169.364 184.906 181.009 174.298 188.207 160.764C195.405 147.229 197.711 131.605 194.732 116.553C191.753 101.501 183.674 87.9535 171.87 78.2177C164.024 71.7463 154.856 67.2255 145.105 64.9213C136.912 62.9851 130 56.3025 130 47.8432V44.3058Z" fill="#0C2BA7"/>
</g>
<path d="M102.17 140.3C97.1303 140.3 94.6103 138.46 94.6103 134.78C94.6103 133.68 94.9003 132.7 95.4803 131.84C96.0803 130.98 96.9303 130.37 98.0303 130.01C97.0303 129.63 96.3003 129.07 95.8403 128.33C95.3803 127.57 95.1503 126.76 95.1503 125.9C95.1503 124.24 95.7203 122.91 96.8603 121.91C98.0203 120.89 99.7903 120.38 102.17 120.38C104.61 120.38 106.39 120.89 107.51 121.91C108.63 122.91 109.19 124.24 109.19 125.9C109.19 126.82 108.96 127.68 108.5 128.48C108.06 129.26 107.28 129.86 106.16 130.28C107.4 130.64 108.3 131.2 108.86 131.96C109.42 132.7 109.7 133.64 109.7 134.78C109.7 138.46 107.19 140.3 102.17 140.3ZM102.98 129.26C104.08 128.98 104.88 128.6 105.38 128.12C105.9 127.64 106.16 126.92 106.16 125.96C106.16 123.96 104.83 122.96 102.17 122.96C100.87 122.96 99.8803 123.2 99.2003 123.68C98.5203 124.16 98.1803 124.92 98.1803 125.96C98.1803 127.54 99.0703 128.5 100.85 128.84L102.98 129.26ZM102.17 137.75C103.67 137.75 104.79 137.51 105.53 137.03C106.29 136.53 106.67 135.76 106.67 134.72C106.67 133.78 106.4 133.1 105.86 132.68C105.34 132.24 104.53 131.91 103.43 131.69L100.97 131.18C99.9503 131.4 99.1403 131.77 98.5403 132.29C97.9403 132.79 97.6403 133.58 97.6403 134.66C97.6403 135.74 98.0203 136.53 98.7803 137.03C99.5603 137.51 100.69 137.75 102.17 137.75ZM114.316 140L121.426 123.2H112.006V120.68H124.936V122.78L117.646 140H114.316ZM124.405 143.6L125.305 137.93H128.155L126.775 143.6H124.405ZM136.193 140.3C135.333 140.3 134.393 140.23 133.373 140.09C132.353 139.95 131.503 139.73 130.823 139.43V136.58C131.523 136.88 132.323 137.11 133.223 137.27C134.123 137.43 134.973 137.51 135.773 137.51C137.313 137.51 138.443 137.25 139.163 136.73C139.903 136.19 140.273 135.31 140.273 134.09C140.273 132.97 140.013 132.14 139.493 131.6C138.973 131.06 137.953 130.79 136.433 130.79H130.733V128.81L131.243 120.68H142.223L141.953 123.2H134.003L133.673 128.27H136.943C139.243 128.27 140.923 128.76 141.983 129.74C143.043 130.72 143.573 132.19 143.573 134.15C143.573 136.05 142.953 137.55 141.713 138.65C140.473 139.75 138.633 140.3 136.193 140.3ZM150.433 129.2C149.013 129.2 147.943 128.81 147.223 128.03C146.523 127.23 146.173 126.22 146.173 125C146.173 123.58 146.523 122.46 147.223 121.64C147.943 120.8 149.013 120.38 150.433 120.38C151.853 120.38 152.913 120.8 153.613 121.64C154.313 122.46 154.663 123.58 154.663 125C154.663 126.22 154.313 127.23 153.613 128.03C152.913 128.81 151.853 129.2 150.433 129.2ZM149.113 140L159.343 120.68H162.403L152.173 140H149.113ZM150.433 127.22C151.213 127.22 151.773 127.02 152.113 126.62C152.453 126.22 152.623 125.66 152.623 124.94C152.623 124.06 152.443 123.42 152.083 123.02C151.743 122.6 151.193 122.39 150.433 122.39C149.673 122.39 149.113 122.6 148.753 123.02C148.413 123.42 148.243 124.06 148.243 124.94C148.243 125.66 148.413 126.22 148.753 126.62C149.093 127.02 149.653 127.22 150.433 127.22ZM161.173 140.3C159.753 140.3 158.683 139.91 157.963 139.13C157.263 138.33 156.913 137.32 156.913 136.1C156.913 134.68 157.263 133.56 157.963 132.74C158.683 131.9 159.753 131.48 161.173 131.48C162.593 131.48 163.653 131.9 164.353 132.74C165.053 133.56 165.403 134.68 165.403 136.1C165.403 137.32 165.053 138.33 164.353 139.13C163.653 139.91 162.593 140.3 161.173 140.3ZM161.173 138.32C161.953 138.32 162.513 138.12 162.853 137.72C163.193 137.32 163.363 136.76 163.363 136.04C163.363 135.16 163.183 134.52 162.823 134.12C162.483 133.7 161.933 133.49 161.173 133.49C160.413 133.49 159.853 133.7 159.493 134.12C159.153 134.52 158.983 135.16 158.983 136.04C158.983 136.76 159.153 137.32 159.493 137.72C159.833 138.12 160.393 138.32 161.173 138.32Z" fill="#EAE9FC"/>
<defs>
<filter id="filter0_ddd_1164_895" x="0" y="0" width="260" height="260" filterUnits="userSpaceOnUse" color-interpolation-filters="sRGB">
<feFlood flood-opacity="0" result="BackgroundImageFix"/>
<feColorMatrix in="SourceAlpha" type="matrix" values="0 0 0 0 0 0 0 0 0 0 0 0 0 0 0 0 0 0 127 0" result="hardAlpha"/>
<feOffset/>
<feGaussianBlur stdDeviation="15"/>
<feComposite in2="hardAlpha" operator="out"/>
<feColorMatrix type="matrix" values="0 0 0 0 0.0470588 0 0 0 0 0.168627 0 0 0 0 0.654902 0 0 0 0.5 0"/>
<feBlend mode="normal" in2="BackgroundImageFix" result="effect1_dropShadow_1164_895"/>
<feColorMatrix in="SourceAlpha" type="matrix" values="0 0 0 0 0 0 0 0 0 0 0 0 0 0 0 0 0 0 127 0" result="hardAlpha"/>
<feOffset/>
<feGaussianBlur stdDeviation="10"/>
<feComposite in2="hardAlpha" operator="out"/>
<feColorMatrix type="matrix" values="0 0 0 0 0.0235294 0 0 0 0 0.0470588 0 0 0 0 0.396078 0 0 0 0.75 0"/>
<feBlend mode="normal" in2="effect1_dropShadow_1164_895" result="effect2_dropShadow_1164_895"/>
<feColorMatrix in="SourceAlpha" type="matrix" values="0 0 0 0 0 0 0 0 0 0 0 0 0 0 0 0 0 0 127 0" result="hardAlpha"/>
<feOffset/>
<feGaussianBlur stdDeviation="5"/>
<feComposite in2="hardAlpha" operator="out"/>
<feColorMatrix type="matrix" values="0 0 0 0 0.0470588 0 0 0 0 0.168627 0 0 0 0 0.654902 0 0 0 0.9 0"/>
<feBlend mode="normal" in2="effect2_dropShadow_1164_895" result="effect3_dropShadow_1164_895"/>
<feBlend mode="normal" in="SourceGraphic" in2="effect3_dropShadow_1164_895" result="shape"/>
</filter>
</defs>
</svg>
