<svg xmlns="http://www.w3.org/2000/svg" width="766" height="364" viewBox="0 0 766 364" fill="none">
  <g filter="url(#filter0_ddd_1061_832)">
    <path d="M115 246.064V121.082H148.471C166.996 121.082 182.152 135.971 182.152 154.424C182.152 162.603 179.416 169.942 174.574 175.814C176.047 176.862 177.31 178.121 178.573 179.379C185.941 186.718 189.941 196.574 189.941 207.06C189.941 217.545 185.941 227.191 178.573 234.531C171.206 241.87 161.101 246.064 150.576 246.064H115ZM162.154 154.424C162.154 146.875 156.049 140.794 148.471 140.794H134.998V170.991C139.84 168.894 144.682 167.845 150.365 167.845C156.26 167.845 162.154 161.345 162.154 154.424ZM155.207 188.396C150.365 187.138 146.366 188.186 146.366 188.186C141.735 189.235 137.735 191.961 134.998 195.736V226.142H150.786C161.522 226.142 169.943 217.754 169.943 207.06C169.943 198.042 163.627 190.493 155.207 188.396Z" fill="#EAE9FC"/>
    <path d="M200.313 246.064V146.875C200.313 133.454 208.313 122.13 219.891 117.517L220.312 117.307V226.142H259.887V246.064H200.313Z" fill="#EAE9FC"/>
    <path d="M518.801 249L553.114 118.985L585.532 196.574L617.74 118.985L651 246.064H630.37L613.319 181.476L585.532 249L557.534 181.476L545.746 226.142C542.378 238.725 531.431 247.322 519.222 248.79L518.801 249Z" fill="#EAE9FC"/>
    <path d="M317.93 246.064C308.999 246.064 300.286 244.348 292.226 240.916C284.385 237.698 277.414 232.764 271.315 226.758C265.216 220.752 260.642 213.673 257.374 205.951C253.889 198.014 252.146 189.219 252.146 180.425C252.146 171.63 253.889 163.05 257.374 155.113C260.642 147.391 265.216 140.312 271.315 134.306C277.414 128.299 284.385 123.366 292.226 120.148C300.286 116.716 308.999 115 317.93 115C326.861 115 335.574 116.716 343.634 120.148C351.475 123.366 358.446 128.299 364.545 134.306C370.644 140.312 375.219 147.391 378.486 155.113C381.971 163.05 383.714 171.63 383.714 180.425C383.714 189.219 381.971 198.014 378.486 205.951C375.219 213.673 370.644 220.752 364.545 226.758C358.446 232.764 351.475 237.698 343.634 240.916C335.574 244.348 326.861 246.064 317.93 246.064ZM317.93 135.593C293.098 135.593 272.84 155.971 272.84 180.425C272.84 204.878 293.098 225.471 317.93 225.471C342.762 225.471 363.02 204.878 363.02 180.425C363.02 155.971 342.762 135.593 317.93 135.593Z" fill="#EAE9FC"/>
    <path d="M317.93 206.745C309.159 193.638 304.773 189.27 291.617 180.532C304.773 171.794 309.159 167.426 317.93 154.319C326.701 167.426 331.087 171.794 344.244 180.532C331.087 189.27 326.701 193.638 317.93 206.745Z" fill="#EAE9FC"/>
    <path d="M456.076 246.064C447.145 246.064 438.432 244.348 430.372 240.916C422.531 237.698 415.56 232.764 409.461 226.758C403.362 220.752 398.788 213.673 395.52 205.951C392.035 198.014 390.292 189.219 390.292 180.425C390.292 171.63 392.035 163.05 395.52 155.113C398.788 147.391 403.362 140.312 409.461 134.306C415.56 128.299 422.531 123.366 430.372 120.148C438.432 116.716 447.145 115 456.076 115C465.007 115 473.72 116.716 481.78 120.148C489.621 123.366 496.592 128.299 502.691 134.306C508.79 140.312 513.365 147.391 516.632 155.113C520.117 163.05 521.86 171.63 521.86 180.425C521.86 189.219 520.117 198.014 516.632 205.951C513.365 213.673 508.79 220.752 502.691 226.758C496.592 232.764 489.621 237.698 481.78 240.916C473.72 244.348 465.007 246.064 456.076 246.064ZM456.076 135.593C431.244 135.593 410.986 155.971 410.986 180.425C410.986 204.878 431.244 225.471 456.076 225.471C480.908 225.471 501.166 204.878 501.166 180.425C501.166 155.971 480.908 135.593 456.076 135.593Z" fill="#EAE9FC"/>
    <path d="M456.076 206.745C447.305 193.638 442.919 189.27 429.763 180.532C442.919 171.794 447.305 167.426 456.076 154.319C464.847 167.426 469.233 171.794 482.39 180.532C469.233 189.27 464.847 193.638 456.076 206.745Z" fill="#EAE9FC"/>
  </g>
  <defs>
    <filter id="filter0_ddd_1061_832" x="0" y="0" width="766" height="364" filterUnits="userSpaceOnUse" color-interpolation-filters="sRGB">
      <feFlood flood-opacity="0" result="BackgroundImageFix"/>
      <feColorMatrix in="SourceAlpha" type="matrix" values="0 0 0 0 0 0 0 0 0 0 0 0 0 0 0 0 0 0 127 0" result="hardAlpha"/>
      <feMorphology radius="15" operator="dilate" in="SourceAlpha" result="effect1_dropShadow_1061_832"/>
      <feOffset/>
      <feGaussianBlur stdDeviation="50"/>
      <feComposite in2="hardAlpha" operator="out"/>
      <feColorMatrix type="matrix" values="0 0 0 0 0.0470588 0 0 0 0 0.168627 0 0 0 0 0.654902 0 0 0 0.5 0"/>
      <feBlend mode="normal" in2="BackgroundImageFix" result="effect1_dropShadow_1061_832"/>
      <feColorMatrix in="SourceAlpha" type="matrix" values="0 0 0 0 0 0 0 0 0 0 0 0 0 0 0 0 0 0 127 0" result="hardAlpha"/>
      <feMorphology radius="10" operator="dilate" in="SourceAlpha" result="effect2_dropShadow_1061_832"/>
      <feOffset/>
      <feGaussianBlur stdDeviation="25"/>
      <feComposite in2="hardAlpha" operator="out"/>
      <feColorMatrix type="matrix" values="0 0 0 0 0.0470588 0 0 0 0 0.168627 0 0 0 0 0.654902 0 0 0 0.75 0"/>
      <feBlend mode="normal" in2="effect1_dropShadow_1061_832" result="effect2_dropShadow_1061_832"/>
      <feColorMatrix in="SourceAlpha" type="matrix" values="0 0 0 0 0 0 0 0 0 0 0 0 0 0 0 0 0 0 127 0" result="hardAlpha"/>
      <feMorphology radius="2" operator="dilate" in="SourceAlpha" result="effect3_dropShadow_1061_832"/>
      <feOffset/>
      <feGaussianBlur stdDeviation="50"/>
      <feComposite in2="hardAlpha" operator="out"/>
      <feColorMatrix type="matrix" values="0 0 0 0 0.0470588 0 0 0 0 0.168627 0 0 0 0 0.654902 0 0 0 0.9 0"/>
      <feBlend mode="normal" in2="effect2_dropShadow_1061_832" result="effect3_dropShadow_1061_832"/>
      <feBlend mode="normal" in="SourceGraphic" in2="effect3_dropShadow_1061_832" result="shape"/>
    </filter>
  </defs>
</svg>