<svg xmlns="http://www.w3.org/2000/svg" width="14" height="14" viewBox="0 0 14 14" fill="none">
  <path d="M1.72312 0.537689L1.72313 0.537677C1.77336 0.487442 1.85471 0.487441 1.90495 0.537673C1.90495 0.537674 1.90495 0.537676 1.90495 0.537677L6.29068 4.92352L6.29069 4.92353C6.68234 5.31518 7.31702 5.31519 7.70868 4.92355C7.70868 4.92354 7.70869 4.92353 7.7087 4.92353L12.095 0.537697L12.095 0.537677C12.1453 0.487441 12.2266 0.487442 12.2769 0.537677L12.2769 0.537689L13.4623 1.72305C13.4623 1.72305 13.4623 1.72306 13.4623 1.72306C13.5126 1.77329 13.5126 1.8547 13.4623 1.90494C13.4623 1.90494 13.4623 1.90495 13.4623 1.90495L9.07599 6.29082L9.07597 6.29084C8.68431 6.6825 8.68431 7.3175 9.07597 7.70916L9.07599 7.70918L13.4623 12.095C13.5126 12.1453 13.5126 12.2267 13.4623 12.2769C13.4623 12.2769 13.4623 12.2769 13.4623 12.2769L12.2769 13.4623L12.2769 13.4623C12.2266 13.5126 12.1453 13.5126 12.095 13.4623L12.095 13.4623L7.7087 9.07647C7.70869 9.07647 7.70868 9.07646 7.70868 9.07645C7.31702 8.68481 6.68234 8.68482 6.29069 9.07647L6.64424 9.43003L6.29068 9.07648L1.90495 13.4623C1.85472 13.5126 1.77336 13.5126 1.72313 13.4623L1.72312 13.4623L0.537677 12.2769C0.537673 12.2769 0.53767 12.2769 0.537666 12.2769C0.487441 12.2267 0.487445 12.1453 0.537677 12.095L0.537683 12.095L4.92341 7.70916C4.92341 7.70916 4.92342 7.70915 4.92342 7.70915C5.31507 7.31749 5.31507 6.68251 4.92342 6.29085C4.92342 6.29085 4.92341 6.29084 4.92341 6.29084L0.537683 1.90496L0.537677 1.90495C0.487445 1.85472 0.487441 1.7733 0.537666 1.72306C0.53767 1.72306 0.537673 1.72305 0.537677 1.72305L1.72312 0.537689Z" fill="#EAE9FC" stroke="#EAE9FC"/>
</svg>