<svg xmlns="http://www.w3.org/2000/svg" width="26" height="27" viewBox="0 0 26 27" fill="none">
  <path fill-rule="evenodd" clip-rule="evenodd" d="M11.5882 1.5C11.1984 1.5 10.8824 1.81603 10.8824 2.20588V4.74907C10.8824 5.07115 10.6633 5.34941 10.3572 5.44982C9.98676 5.57136 9.62756 5.71777 9.28161 5.88706C8.99575 6.02695 8.64925 5.98317 8.42421 5.75813L6.61159 3.94551C6.33592 3.66984 5.88898 3.66984 5.61332 3.94551L3.61678 5.94204C3.34112 6.21771 3.34112 6.66465 3.61678 6.94031L5.37355 8.69708C5.60408 8.92761 5.64388 9.28463 5.49254 9.5734C5.27799 9.98277 5.09594 10.4119 4.94982 10.8572C4.84941 11.1633 4.57115 11.3824 4.24907 11.3824H1.70588C1.31603 11.3824 1 11.6984 1 12.0882V14.9118C1 15.3016 1.31603 15.6176 1.70588 15.6176H4.24907C4.57115 15.6176 4.84941 15.8367 4.94982 16.1428C5.09594 16.5881 5.27799 17.0172 5.49254 17.4266C5.64388 17.7154 5.60408 18.0724 5.37355 18.3029L3.5874 20.0891C3.31173 20.3647 3.31173 20.8117 3.5874 21.0873L5.58393 23.0839C5.8596 23.3595 6.30654 23.3595 6.5822 23.0839L8.42421 21.2419C8.64925 21.0168 8.99575 20.9731 9.28161 21.1129C9.62756 21.2822 9.98676 21.4286 10.3572 21.5502C10.6633 21.6506 10.8824 21.9289 10.8824 22.2509V24.7941C10.8824 25.184 11.1984 25.5 11.5882 25.5H14.4118C14.8016 25.5 15.1176 25.184 15.1176 24.7941V22.2509C15.1176 21.9289 15.3367 21.6506 15.6428 21.5502C16.0881 21.4041 16.5172 21.222 16.9266 21.0075C17.2154 20.8561 17.5724 20.8959 17.8029 21.1265L19.5891 22.9126C19.8647 23.1883 20.3117 23.1883 20.5873 22.9126L22.5839 20.9161C22.8595 20.6404 22.8595 20.1935 22.5839 19.9178L20.7419 18.0758C20.5168 17.8508 20.4731 17.5043 20.6129 17.2184C20.7822 16.8724 20.9286 16.5132 21.0502 16.1428C21.1506 15.8367 21.4289 15.6176 21.7509 15.6176H24.2941C24.684 15.6176 25 15.3016 25 14.9118V12.0882C25 11.6984 24.684 11.3824 24.2941 11.3824H21.7509C21.4289 11.3824 21.1506 11.1633 21.0502 10.8572C20.9286 10.4868 20.7822 10.1276 20.6129 9.78161C20.4731 9.49575 20.5168 9.14925 20.7419 8.92421L22.5545 7.11159C22.8302 6.83592 22.8302 6.38898 22.5545 6.11332L20.558 4.11678C20.2823 3.84112 19.8354 3.84112 19.5597 4.11678L17.8029 5.87355C17.5724 6.10408 17.2154 6.14388 16.9266 5.99254C16.5172 5.77799 16.0881 5.59594 15.6428 5.44982C15.3367 5.34941 15.1176 5.07115 15.1176 4.74907V2.20588C15.1176 1.81603 14.8016 1.5 14.4118 1.5H11.5882ZM13 17.7353C15.3391 17.7353 17.2353 15.8391 17.2353 13.5C17.2353 11.1609 15.3391 9.26471 13 9.26471C10.6609 9.26471 8.76471 11.1609 8.76471 13.5C8.76471 15.8391 10.6609 17.7353 13 17.7353Z" stroke="#EAE9FC" stroke-width="1.6"/>
</svg>