<svg xmlns="http://www.w3.org/2000/svg" width="110" height="110" viewBox="0 0 110 110" fill="none">
  <g filter="url(#filter0_ddd_1140_1701)">
    <path d="M67.1792 59.6187L58.0271 55.6771C56.075 54.8375 53.8354 54.8375 51.8854 55.6812L42.7917 59.6187C41.2854 60.2708 40.35 61.6958 40.3479 63.3354C40.3458 64.975 41.2792 66.4021 42.7812 67.0583L46.6667 68.7542V74.1542C46.6667 76.1833 47.8542 78.0417 49.6958 78.8896C51.2979 79.6271 53.0812 80 55 80C56.9188 80 58.7021 79.625 60.3083 78.8896C62.1458 78.0417 63.3333 76.1813 63.3333 74.1542V68.7375L65.4167 67.8333V73.7521C65.4167 74.9042 66.3479 75.8354 67.5 75.8354C68.6521 75.8354 69.5833 74.9042 69.5833 73.7521C69.5833 73.7521 69.5833 63.4458 69.5833 63.3354C69.5833 61.7167 68.6646 60.2563 67.1792 59.6208V59.6187ZM53.5417 59.5062C54.4417 59.1146 55.4792 59.1146 56.3792 59.5021L65.4417 63.2042C65.4417 63.2333 65.4271 63.2563 65.425 63.2854L56.3937 67.2083C55.4854 67.6021 54.4437 67.6021 53.5354 67.2042L44.4458 63.4437L53.5396 59.5062H53.5417ZM59.1667 74.1521C59.1667 74.5667 58.9354 74.9333 58.5646 75.1042C56.4604 76.0687 53.5375 76.0687 51.4375 75.1042C51.0646 74.9333 50.8333 74.5667 50.8333 74.1521V70.5708L51.8708 71.0229C52.8562 71.4521 53.9125 71.6667 54.9708 71.6667C56.0229 71.6667 57.075 71.4542 58.0562 71.0271L59.1667 70.5438V74.1521ZM44.5833 39.375C44.5833 41.1 43.1833 42.5 41.4583 42.5C39.7333 42.5 38.3333 41.1 38.3333 39.375C38.3333 37.65 39.7333 36.25 41.4583 36.25C43.1833 36.25 44.5833 37.65 44.5833 39.375ZM52.9167 39.375C52.9167 41.1 51.5167 42.5 49.7917 42.5C48.0667 42.5 46.6667 41.1 46.6667 39.375C46.6667 37.65 48.0667 36.25 49.7917 36.25C51.5167 36.25 52.9167 37.65 52.9167 39.375ZM69.5833 30H40.4167C34.6729 30 30 34.6729 30 40.4167V65.4167C30 71.1604 34.6729 75.8333 40.4167 75.8333C41.5667 75.8333 42.5 74.9021 42.5 73.75C42.5 72.5979 41.5667 71.6667 40.4167 71.6667C36.9708 71.6667 34.1667 68.8625 34.1667 65.4167V48.75H75.8333V65.4167C75.8333 66.9396 75.2792 68.4083 74.2729 69.5479C73.5125 70.4104 73.5938 71.7271 74.4583 72.4875C75.3167 73.2479 76.6354 73.1688 77.3979 72.3021C79.0771 70.4021 80 67.9542 80 65.4146V40.4167C80 34.6729 75.3271 30 69.5833 30ZM34.1667 44.5833V40.4167C34.1667 36.9708 36.9708 34.1667 40.4167 34.1667H69.5833C73.0292 34.1667 75.8333 36.9708 75.8333 40.4167V44.5833H34.1667Z" fill="#70A2FF"/>
  </g>
  <defs>
    <filter id="filter0_ddd_1140_1701" x="0" y="0" width="110" height="110" filterUnits="userSpaceOnUse" color-interpolation-filters="sRGB">
      <feFlood flood-opacity="0" result="BackgroundImageFix"/>
      <feColorMatrix in="SourceAlpha" type="matrix" values="0 0 0 0 0 0 0 0 0 0 0 0 0 0 0 0 0 0 127 0" result="hardAlpha"/>
      <feOffset/>
      <feGaussianBlur stdDeviation="15"/>
      <feComposite in2="hardAlpha" operator="out"/>
      <feColorMatrix type="matrix" values="0 0 0 0 0.0470588 0 0 0 0 0.168627 0 0 0 0 0.654902 0 0 0 0.5 0"/>
      <feBlend mode="normal" in2="BackgroundImageFix" result="effect1_dropShadow_1140_1701"/>
      <feColorMatrix in="SourceAlpha" type="matrix" values="0 0 0 0 0 0 0 0 0 0 0 0 0 0 0 0 0 0 127 0" result="hardAlpha"/>
      <feOffset/>
      <feGaussianBlur stdDeviation="10"/>
      <feComposite in2="hardAlpha" operator="out"/>
      <feColorMatrix type="matrix" values="0 0 0 0 0.0470588 0 0 0 0 0.168627 0 0 0 0 0.654902 0 0 0 0.75 0"/>
      <feBlend mode="normal" in2="effect1_dropShadow_1140_1701" result="effect2_dropShadow_1140_1701"/>
      <feColorMatrix in="SourceAlpha" type="matrix" values="0 0 0 0 0 0 0 0 0 0 0 0 0 0 0 0 0 0 127 0" result="hardAlpha"/>
      <feOffset/>
      <feGaussianBlur stdDeviation="5"/>
      <feComposite in2="hardAlpha" operator="out"/>
      <feColorMatrix type="matrix" values="0 0 0 0 0.0470588 0 0 0 0 0.168627 0 0 0 0 0.654902 0 0 0 0.9 0"/>
      <feBlend mode="normal" in2="effect2_dropShadow_1140_1701" result="effect3_dropShadow_1140_1701"/>
      <feBlend mode="normal" in="SourceGraphic" in2="effect3_dropShadow_1140_1701" result="shape"/>
    </filter>
  </defs>
</svg>