<svg xmlns="http://www.w3.org/2000/svg" width="110" height="110" viewBox="0 0 110 110" fill="none">
  <g filter="url(#filter0_ddd_1140_1694)">
    <path d="M59.1657 46.666C60.3156 46.666 61.2489 45.7348 61.2489 44.5827C61.2489 43.4307 60.3156 42.4995 59.1657 42.4995H38.3339C33.7384 42.4995 30.0012 46.2368 30.0012 50.8325V57.0822C30.0012 58.2342 30.9345 59.1655 32.0844 59.1655C33.2343 59.1655 34.1676 58.2342 34.1676 57.0822V50.8325C34.1676 48.5346 36.0362 46.666 38.3339 46.666H42.5003V57.0822C42.5003 58.2342 43.4335 59.1655 44.5834 59.1655C45.7334 59.1655 46.6666 58.2342 46.6666 57.0822V46.666H59.1657Z" fill="#70A2FF"/>
    <path d="M34.1676 35.2081C34.1676 32.3312 36.4986 30 39.3755 30C42.2524 30 44.5834 32.3312 44.5834 35.2081C44.5834 38.0851 42.2524 40.4162 39.3755 40.4162C36.4986 40.4162 34.1676 38.0851 34.1676 35.2081Z" fill="#70A2FF"/>
    <path fill-rule="evenodd" clip-rule="evenodd" d="M65.9881 76.4793C67.638 74.744 70.0878 73.7482 72.7064 73.7482L72.7084 73.7503C75.3291 73.7503 77.7768 74.7461 79.4267 76.4814C80.2204 77.3147 80.185 78.6355 79.3517 79.4271C78.9496 79.8104 78.433 80 77.9164 80C77.3643 80 76.8144 79.7813 76.4061 79.3521C74.6958 77.5543 70.7169 77.5543 69.0087 79.3521C68.215 80.1833 66.8964 80.2208 66.0631 79.425C65.2277 78.6334 65.1944 77.3126 65.9881 76.4793ZM48.2811 76.4793C49.931 74.744 52.3808 73.7482 54.9993 73.7482L55.0014 73.7503C57.6221 73.7503 60.0698 74.7461 61.7197 76.4814C62.5134 77.3147 62.4779 78.6355 61.6447 79.4271C61.2426 79.8104 60.726 80 60.2094 80C59.6573 80 59.1074 79.7813 58.6991 79.3521C56.9888 77.5543 53.0099 77.5543 51.3017 79.3521C50.5101 80.1833 49.1894 80.2208 48.3561 79.425C47.5207 78.6334 47.4874 77.3126 48.2811 76.4793ZM30.5741 76.4793C32.2239 74.744 34.6738 73.7482 37.2923 73.7482L37.2944 73.7503C39.915 73.7503 42.3628 74.7461 44.0127 76.4814C44.8063 77.3147 44.7709 78.6355 43.9377 79.4271C43.5356 79.8104 43.019 80 42.5023 80C41.9503 80 41.4003 79.7813 40.992 79.3521C39.2818 77.5543 35.3029 77.5543 33.5947 79.3521C32.8031 80.1833 31.4823 80.2208 30.6491 79.425C29.8137 78.6334 29.7804 77.3126 30.5741 76.4793ZM37.2923 63.3319C39.5942 63.3319 41.4587 65.1964 41.4587 67.4984C41.4587 69.8004 39.5942 71.6649 37.2923 71.6649C34.9904 71.6649 33.126 69.8004 33.126 67.4984C33.126 65.1964 34.9904 63.3319 37.2923 63.3319ZM54.9993 63.3319C57.3012 63.3319 59.1657 65.1964 59.1657 67.4984C59.1657 69.8004 57.3012 71.6649 54.9993 71.6649C52.6974 71.6649 50.833 69.8004 50.833 67.4984C50.833 65.1964 52.6974 63.3319 54.9993 63.3319ZM72.7064 63.3319C75.0083 63.3319 76.8727 65.1964 76.8727 67.4984C76.8727 69.8004 75.0083 71.6649 72.7064 71.6649C70.4044 71.6649 68.54 69.8004 68.54 67.4984C68.54 65.1964 70.4044 63.3319 72.7064 63.3319Z" fill="#70A2FF"/>
    <path d="M70.6232 30H50.833C49.6831 30 48.7498 30.9312 48.7498 32.0832C48.7498 33.2353 49.6831 34.1665 50.833 34.1665H70.6232C73.4938 34.1665 75.8311 36.5018 75.8311 39.3746V49.7908C75.8311 52.6636 73.4938 54.999 70.6232 54.999H69.5816V52.9157C69.5816 51.7637 68.6483 50.8325 67.4984 50.8325H63.3321C62.1821 50.8325 61.2489 51.7637 61.2489 52.9157V54.999H52.9162C51.7662 54.999 50.833 55.9302 50.833 57.0822C50.833 58.2342 51.7662 59.1655 52.9162 59.1655H70.6232C75.7915 59.1655 79.9975 54.9594 79.9975 49.7908V39.3746C79.9975 34.2061 75.7915 30 70.6232 30Z" fill="#70A2FF"/>
  </g>
  <defs>
    <filter id="filter0_ddd_1140_1694" x="0" y="0" width="110" height="110" filterUnits="userSpaceOnUse" color-interpolation-filters="sRGB">
      <feFlood flood-opacity="0" result="BackgroundImageFix"/>
      <feColorMatrix in="SourceAlpha" type="matrix" values="0 0 0 0 0 0 0 0 0 0 0 0 0 0 0 0 0 0 127 0" result="hardAlpha"/>
      <feOffset/>
      <feGaussianBlur stdDeviation="15"/>
      <feComposite in2="hardAlpha" operator="out"/>
      <feColorMatrix type="matrix" values="0 0 0 0 0.0470588 0 0 0 0 0.168627 0 0 0 0 0.654902 0 0 0 0.5 0"/>
      <feBlend mode="normal" in2="BackgroundImageFix" result="effect1_dropShadow_1140_1694"/>
      <feColorMatrix in="SourceAlpha" type="matrix" values="0 0 0 0 0 0 0 0 0 0 0 0 0 0 0 0 0 0 127 0" result="hardAlpha"/>
      <feOffset/>
      <feGaussianBlur stdDeviation="10"/>
      <feComposite in2="hardAlpha" operator="out"/>
      <feColorMatrix type="matrix" values="0 0 0 0 0.0470588 0 0 0 0 0.168627 0 0 0 0 0.654902 0 0 0 0.75 0"/>
      <feBlend mode="normal" in2="effect1_dropShadow_1140_1694" result="effect2_dropShadow_1140_1694"/>
      <feColorMatrix in="SourceAlpha" type="matrix" values="0 0 0 0 0 0 0 0 0 0 0 0 0 0 0 0 0 0 127 0" result="hardAlpha"/>
      <feOffset/>
      <feGaussianBlur stdDeviation="5"/>
      <feComposite in2="hardAlpha" operator="out"/>
      <feColorMatrix type="matrix" values="0 0 0 0 0.0470588 0 0 0 0 0.168627 0 0 0 0 0.654902 0 0 0 0.9 0"/>
      <feBlend mode="normal" in2="effect2_dropShadow_1140_1694" result="effect3_dropShadow_1140_1694"/>
      <feBlend mode="normal" in="SourceGraphic" in2="effect3_dropShadow_1140_1694" result="shape"/>
    </filter>
  </defs>
</svg>