<svg xmlns="http://www.w3.org/2000/svg" width="30" height="29" viewBox="0 0 30 29" fill="none">
  <path d="M8 27.5C6.89543 27.5 6 26.6046 6 25.5V17.2675C6 16.7734 6.18289 16.2968 6.51341 15.9295L13.5134 8.15177C14.3079 7.26901 15.6921 7.269 16.4866 8.15176L23.4866 15.9295C23.8171 16.2968 24 16.7734 24 17.2675V25.5C24 26.6046 23.1046 27.5 22 27.5H8Z" fill="#EAE9FC"/>
  <path d="M1 14.5L13.5858 1.91421C14.3668 1.13316 15.6332 1.13317 16.4142 1.91421L29 14.5M13.5134 8.15177L6.51341 15.9295C6.18289 16.2968 6 16.7734 6 17.2675V25.5C6 26.6046 6.89543 27.5 8 27.5H22C23.1046 27.5 24 26.6046 24 25.5V17.2675C24 16.7734 23.8171 16.2968 23.4866 15.9295L16.4866 8.15176C15.6921 7.269 14.3079 7.26901 13.5134 8.15177Z" stroke="#EAE9FC" stroke-width="2" stroke-linecap="round" stroke-linejoin="round"/>
</svg>