<svg width="238" height="109" viewBox="0 0 238 109" fill="none" xmlns="http://www.w3.org/2000/svg">
<g filter="url(#filter0_ddd_1754_947)">
<path d="M63 44V18H69.8855C73.6964 18 76.8144 21.0973 76.8144 24.9362C76.8144 26.6376 76.2514 28.1644 75.2554 29.3859C75.5585 29.604 75.8184 29.8658 76.0782 30.1275C77.5939 31.6544 78.4167 33.7047 78.4167 35.8859C78.4167 38.0671 77.5939 40.0738 76.0782 41.6007C74.5625 43.1275 72.4839 44 70.3186 44H63ZM72.7004 24.9362C72.7004 23.3658 71.434 22.1935 69.875 22.1935H67.1667V28.379C68.1627 27.9428 69.106 27.7282 70.2753 27.7282C71.4878 27.7282 72.7004 26.3758 72.7004 24.9362ZM71.2713 32.0034C70.2753 31.7416 69.4525 31.9597 69.4525 31.9597C68.4998 32.1779 67.7296 32.7309 67.1667 33.5161V39.8065H70.3958C72.6044 39.8065 74.25 38.1523 74.25 35.9274C74.25 34.0516 73.0035 32.4396 71.2713 32.0034Z" fill="#EAE9FC"/>
<path d="M147.167 44L153.833 18L160.207 33.5161L166.542 18L173 44H168.833L165.637 30.4968L160.207 44L154.736 30.4968L152.432 39.429C151.774 41.9452 149.553 43.7065 147.167 44Z" fill="#EAE9FC"/>
<path d="M80.9167 44V33.9853V23.9707C80.9167 21.2606 82.654 18.9316 85.0833 18L85.1128 39.8065H93.4167V44H80.9167Z" fill="#EAE9FC"/>
<path d="M106.333 44C104.58 44 102.869 43.6596 101.286 42.9787C99.7467 42.3404 98.378 41.3617 97.1805 40.1702C95.9829 38.9787 95.0847 37.5745 94.4432 36.0426C93.7588 34.4681 93.4167 32.7234 93.4167 30.9787C93.4167 29.234 93.7588 27.5319 94.4432 25.9574C95.0847 24.4255 95.9829 23.0213 97.1805 21.8298C98.378 20.6383 99.7467 19.6596 101.286 19.0213C102.869 18.3404 104.58 18 106.333 18C108.087 18 109.798 18.3404 111.38 19.0213C112.92 19.6596 114.289 20.6383 115.486 21.8298C116.684 23.0213 117.582 24.4255 118.224 25.9574C118.908 27.5319 119.25 29.234 119.25 30.9787C119.25 32.7234 118.908 34.4681 118.224 36.0426C117.582 37.5745 116.684 38.9787 115.486 40.1702C114.289 41.3617 112.92 42.3404 111.38 42.9787C109.798 43.6596 108.087 44 106.333 44ZM106.333 22.0851C101.458 22.0851 97.4799 26.1277 97.4799 30.9787C97.4799 35.8298 101.458 39.9149 106.333 39.9149C111.209 39.9149 115.187 35.8298 115.187 30.9787C115.187 26.1277 111.209 22.0851 106.333 22.0851Z" fill="#EAE9FC"/>
<path d="M106.333 36.2C104.611 33.6 103.75 32.7333 101.167 31C103.75 29.2667 104.611 28.4 106.333 25.8C108.056 28.4 108.917 29.2667 111.5 31C108.917 32.7333 108.056 33.6 106.333 36.2Z" fill="#EAE9FC"/>
<path d="M134.25 44C132.496 44 130.786 43.6596 129.203 42.9787C127.663 42.3404 126.295 41.3617 125.097 40.1702C123.9 38.9787 123.001 37.5745 122.36 36.0426C121.675 34.4681 121.333 32.7234 121.333 30.9787C121.333 29.234 121.675 27.5319 122.36 25.9574C123.001 24.4255 123.9 23.0213 125.097 21.8298C126.295 20.6383 127.663 19.6596 129.203 19.0213C130.786 18.3404 132.496 18 134.25 18C136.004 18 137.714 18.3404 139.297 19.0213C140.837 19.6596 142.205 20.6383 143.403 21.8298C144.6 23.0213 145.499 24.4255 146.14 25.9574C146.825 27.5319 147.167 29.234 147.167 30.9787C147.167 32.7234 146.825 34.4681 146.14 36.0426C145.499 37.5745 144.6 38.9787 143.403 40.1702C142.205 41.3617 140.837 42.3404 139.297 42.9787C137.714 43.6596 136.004 44 134.25 44ZM134.25 22.0851C129.374 22.0851 125.397 26.1277 125.397 30.9787C125.397 35.8298 129.374 39.9149 134.25 39.9149C139.126 39.9149 143.103 35.8298 143.103 30.9787C143.103 26.1277 139.126 22.0851 134.25 22.0851Z" fill="#EAE9FC"/>
<path d="M134.25 36.2C132.528 33.6 131.667 32.7333 129.083 31C131.667 29.2667 132.528 28.4 134.25 25.8C135.972 28.4 136.833 29.2667 139.417 31C136.833 32.7333 135.972 33.6 134.25 36.2Z" fill="#EAE9FC"/>
</g>
<defs>
<filter id="filter0_ddd_1754_947" x="-2" y="-47" width="240" height="156" filterUnits="userSpaceOnUse" color-interpolation-filters="sRGB">
<feFlood flood-opacity="0" result="BackgroundImageFix"/>
<feColorMatrix in="SourceAlpha" type="matrix" values="0 0 0 0 0 0 0 0 0 0 0 0 0 0 0 0 0 0 127 0" result="hardAlpha"/>
<feMorphology radius="15" operator="dilate" in="SourceAlpha" result="effect1_dropShadow_1754_947"/>
<feOffset/>
<feGaussianBlur stdDeviation="25"/>
<feComposite in2="hardAlpha" operator="out"/>
<feColorMatrix type="matrix" values="0 0 0 0 0.0470588 0 0 0 0 0.168627 0 0 0 0 0.654902 0 0 0 0.5 0"/>
<feBlend mode="normal" in2="BackgroundImageFix" result="effect1_dropShadow_1754_947"/>
<feColorMatrix in="SourceAlpha" type="matrix" values="0 0 0 0 0 0 0 0 0 0 0 0 0 0 0 0 0 0 127 0" result="hardAlpha"/>
<feMorphology radius="10" operator="dilate" in="SourceAlpha" result="effect2_dropShadow_1754_947"/>
<feOffset/>
<feGaussianBlur stdDeviation="12.5"/>
<feComposite in2="hardAlpha" operator="out"/>
<feColorMatrix type="matrix" values="0 0 0 0 0.0470588 0 0 0 0 0.168627 0 0 0 0 0.654902 0 0 0 0.75 0"/>
<feBlend mode="normal" in2="effect1_dropShadow_1754_947" result="effect2_dropShadow_1754_947"/>
<feColorMatrix in="SourceAlpha" type="matrix" values="0 0 0 0 0 0 0 0 0 0 0 0 0 0 0 0 0 0 127 0" result="hardAlpha"/>
<feMorphology radius="5" operator="dilate" in="SourceAlpha" result="effect3_dropShadow_1754_947"/>
<feOffset/>
<feGaussianBlur stdDeviation="5"/>
<feComposite in2="hardAlpha" operator="out"/>
<feColorMatrix type="matrix" values="0 0 0 0 0.0470588 0 0 0 0 0.168627 0 0 0 0 0.654902 0 0 0 0.9 0"/>
<feBlend mode="normal" in2="effect2_dropShadow_1754_947" result="effect3_dropShadow_1754_947"/>
<feBlend mode="normal" in="SourceGraphic" in2="effect3_dropShadow_1754_947" result="shape"/>
</filter>
</defs>
</svg>
