<svg xmlns="http://www.w3.org/2000/svg" width="17" height="17" viewBox="0 0 17 17" fill="none">
<path d="M7.66667 6.76667V1.83333C7.66667 1.3731 8.03976 1 8.5 1C8.96024 1 9.33333 1.3731 9.33333 1.83333V6.76667C9.33333 7.26372 9.73628 7.66667 10.2333 7.66667H15.1667C15.6269 7.66667 16 8.03976 16 8.5C16 8.96024 15.6269 9.33333 15.1667 9.33333H10.2333C9.73628 9.33333 9.33333 9.73628 9.33333 10.2333V15.1667C9.33333 15.6269 8.96024 16 8.5 16C8.03976 16 7.66667 15.6269 7.66667 15.1667V10.2333C7.66667 9.73628 7.26372 9.33333 6.76667 9.33333H1.83333C1.3731 9.33333 1 8.96024 1 8.5C1 8.03976 1.3731 7.66667 1.83333 7.66667H6.76667C7.26372 7.66667 7.66667 7.26372 7.66667 6.76667Z" fill="#EAE9FC" stroke="#EAE9FC"/>
</svg>