<svg xmlns="http://www.w3.org/2000/svg" width="40" height="40" viewBox="0 0 40 40" fill="none">
  <path d="M20.4 0H19.6C18.4954 0 17.6 0.895431 17.6 2V16.8C17.6 17.2418 17.2418 17.6 16.8 17.6H2C0.895432 17.6 0 18.4954 0 19.6V20.4C0 21.5046 0.895431 22.4 2 22.4H16.8C17.2418 22.4 17.6 22.7582 17.6 23.2V38C17.6 39.1046 18.4954 40 19.6 40H20.4C21.5046 40 22.4 39.1046 22.4 38V23.2C22.4 22.7582 22.7582 22.4 23.2 22.4H38C39.1046 22.4 40 21.5046 40 20.4V19.6C40 18.4954 39.1046 17.6 38 17.6H23.2C22.7582 17.6 22.4 17.2418 22.4 16.8V2C22.4 0.895432 21.5046 0 20.4 0Z" fill="#EAE9FC" fill-opacity="0.5"/>
</svg>