<svg xmlns="http://www.w3.org/2000/svg" width="30" height="30" viewBox="0 0 30 30" fill="none">
  <path d="M5.775 22.65C7.05 21.675 8.475 20.9062 10.05 20.3438C11.625 19.7812 13.275 19.5 15 19.5C16.725 19.5 18.375 19.7812 19.95 20.3438C21.525 20.9062 22.95 21.675 24.225 22.65C25.1 21.625 25.7813 20.4625 26.2688 19.1625C26.7563 17.8625 27 16.475 27 15C27 11.675 25.8313 8.84375 23.4938 6.50625C21.1562 4.16875 18.325 3 15 3C11.675 3 8.84375 4.16875 6.50625 6.50625C4.16875 8.84375 3 11.675 3 15C3 16.475 3.24375 17.8625 3.73125 19.1625C4.21875 20.4625 4.9 21.625 5.775 22.65ZM15 16.5C13.525 16.5 12.2812 15.9938 11.2688 14.9813C10.2563 13.9688 9.75 12.725 9.75 11.25C9.75 9.775 10.2563 8.53125 11.2688 7.51875C12.2812 6.50625 13.525 6 15 6C16.475 6 17.7188 6.50625 18.7313 7.51875C19.7437 8.53125 20.25 9.775 20.25 11.25C20.25 12.725 19.7437 13.9688 18.7313 14.9813C17.7188 15.9938 16.475 16.5 15 16.5ZM15 30C12.925 30 10.975 29.6062 9.15 28.8187C7.325 28.0312 5.7375 26.9625 4.3875 25.6125C3.0375 24.2625 1.96875 22.675 1.18125 20.85C0.39375 19.025 0 17.075 0 15C0 12.925 0.39375 10.975 1.18125 9.15C1.96875 7.325 3.0375 5.7375 4.3875 4.3875C5.7375 3.0375 7.325 1.96875 9.15 1.18125C10.975 0.39375 12.925 0 15 0C17.075 0 19.025 0.39375 20.85 1.18125C22.675 1.96875 24.2625 3.0375 25.6125 4.3875C26.9625 5.7375 28.0312 7.325 28.8187 9.15C29.6062 10.975 30 12.925 30 15C30 17.075 29.6062 19.025 28.8187 20.85C28.0312 22.675 26.9625 24.2625 25.6125 25.6125C24.2625 26.9625 22.675 28.0312 20.85 28.8187C19.025 29.6062 17.075 30 15 30Z" fill="#D9D9D9"/>
</svg>